<?xml version="1.0" encoding="utf-8"?>
<!-- Generator: Adobe Illustrator 16.0.0, SVG Export Plug-In . SVG Version: 6.00 Build 0)  -->
<!DOCTYPE svg PUBLIC "-//W3C//DTD SVG 1.1//EN" "http://www.w3.org/Graphics/SVG/1.1/DTD/svg11.dtd">
<svg version="1.1" id="Capa_1" xmlns="http://www.w3.org/2000/svg" xmlns:xlink="http://www.w3.org/1999/xlink" x="0px" y="0px"
	 width="653px" height="429px" viewBox="0 0 653 429" enable-background="new 0 0 653 429" xml:space="preserve">
<g>
	<g>
		<path fill="#F4F4F4" d="M201,51v152H40V51H201 M202,50H39v154h163V50L202,50z"/>
	</g>
</g>
<g>
	<g>
		<path fill="#F4F4F4" d="M407,51v152H246V51H407 M408,50H245v154h163V50L408,50z"/>
	</g>
</g>
<g>
	<g>
		<path fill="#F4F4F4" d="M619,51v152H458V51H619 M620,50H457v154h163V50L620,50z"/>
	</g>
</g>
<g>
	<g>
		<path fill="#F4F4F4" d="M201,253v152H40V253H201 M202,252H39v154h163V252L202,252z"/>
	</g>
</g>
<g>
	<g>
		<path fill="#F4F4F4" d="M407,253v152H246V253H407 M408,252H245v154h163V252L408,252z"/>
	</g>
</g>
<g>
	<g>
		<path fill="#F4F4F4" d="M619,253v152H458V253H619 M620,252H457v154h163V252L620,252z"/>
	</g>
</g>
<rect x="-409" y="33" fill="#425F73" width="152" height="152"/>
<rect x="-409" y="229" fill="#BECCD3" width="152" height="152"/>
<rect x="-409" y="418" fill="#DEDBD8" width="152" height="152"/>
<g id="_x33_auj7h_1_">
	
		<image overflow="visible" width="1200" height="600" id="_x33_auj7h_2_" xlink:href="CD09841FFC1A44A7.png"  transform="matrix(1 0 0 1 1065.4551 -240)">
	</image>
</g>
<g>
	<rect x="45" y="55" fill="#E4FED3" width="151" height="72"/>
</g>
<g>
	<rect x="45" y="257" fill="#EFEFEF" width="151" height="72"/>
</g>
<g>
	<rect x="251" y="99" fill="#EFEFEF" width="151" height="56"/>
</g>
<g>
	<rect x="251" y="155" fill="#E4FED3" width="151" height="44"/>
</g>
<g>
	<rect x="251" y="55" fill="#E4FED3" width="151" height="44"/>
</g>
<g>
	<rect x="251" y="301" fill="#EFEFEF" width="151" height="44"/>
</g>
<g>
	<rect x="251" y="257" fill="#EFEFEF" width="151" height="44"/>
</g>
<g>
	<rect x="463" y="55" fill="#EFEFEF" width="151" height="144"/>
</g>
<rect x="43" y="13.353" fill="none" width="160.494" height="41.358"/>
<text transform="matrix(1 0 0 1 91.5435 38.918)" fill="#EFEFEF" font-family="'Futura-Medium'" font-size="31">v0.1</text>
<rect x="251" y="13.353" fill="none" width="160.494" height="41.358"/>
<text transform="matrix(1 0 0 1 299.5435 38.918)" fill="#EFEFEF" font-family="'Futura-Medium'" font-size="31">v0.2</text>
<rect x="460" y="13.353" fill="none" width="160.494" height="41.358"/>
<text transform="matrix(1 0 0 1 508.543 38.918)" fill="#EFEFEF" font-family="'Futura-Medium'" font-size="31">v0.3</text>
<g>
	<rect x="463" y="257" fill="#EFEFEF" width="151" height="19"/>
</g>
<g>
	<rect x="463" y="55" fill="#F4E0E0" width="151" height="18"/>
</g>
<g>
	<rect x="463" y="73" fill="#E4FED3" width="151" height="18"/>
</g>
</svg>
